SplineFontDB: 3.2
FontName: Essiah
FullName: Essiah
FamilyName: Essiah
Weight: Regular
Copyright: Copyright (c) 2023, Michael Chapman
UComments: "2023-12-3: Created with FontForge (http://fontforge.org)"
Version: 001.000
ItalicAngle: 0
UnderlinePosition: -102.4
UnderlineWidth: 51.2
Ascent: 819
Descent: 205
InvalidEm: 0
LayerCount: 2
Layer: 0 0 "Back" 1
Layer: 1 0 "Fore" 0
XUID: [1021 111 1703824445 6969350]
FSType: 0
OS2Version: 0
OS2_WeightWidthSlopeOnly: 0
OS2_UseTypoMetrics: 1
CreationTime: 1701637513
ModificationTime: 1701650236
PfmFamily: 17
TTFWeight: 400
TTFWidth: 5
LineGap: 94
VLineGap: 0
OS2TypoAscent: 839
OS2TypoAOffset: 0
OS2TypoDescent: -210
OS2TypoDOffset: 0
OS2TypoLinegap: 94
OS2WinAscent: 839
OS2WinAOffset: 0
OS2WinDescent: 210
OS2WinDOffset: 0
HheadAscent: 839
HheadAOffset: 0
HheadDescent: 210
HheadDOffset: 0
OS2Vendor: 'PfEd'
MarkAttachClasses: 1
DEI: 91125
LangName: 1033
Encoding: ISO8859-1
UnicodeInterp: none
NameList: AGL For New Fonts
DisplaySize: -72
AntiAlias: 1
FitToEm: 0
WinInfo: 70 14 5
BeginPrivate: 0
EndPrivate
Grid
-1024 464 m 0
 2048 464 l 1024
-1024 176 m 0
 2048 176 l 1024
528 1331 m 0
 528 -717 l 1024
240 1331 m 0
 240 -717 l 1024
640 1331 m 0
 640 -717 l 1024
128 1331 m 0
 128 -717 l 1024
-1024 576 m 0
 2048 576 l 1024
-1018 64 m 0
 2054 64 l 1024
-1024 352 m 0
 2048 352 l 1024
-1024 288 m 0
 2048 288 l 1024
416 1331 m 0
 416 -717 l 1024
352 1331 m 0
 352 -717 l 1024
-1024 320 m 0
 2048 320 l 1024
384 1331 m 0
 384 -717 l 1024
-1025 640 m 0
 2047 640 l 1024
704 1331 m 0
 704 -717 l 1024
64 1326 m 0
 64 -722 l 1024
EndSplineSet
BeginChars: 256 256

StartChar: o
Encoding: 111 111 0
Width: 768
Flags: HW
LayerCount: 2
Fore
SplineSet
128 320 m 4
 128 179 243 64 384 64 c 4
 525 64 640 179 640 320 c 4
 640 461 525 576 384 576 c 4
 243 576 128 461 128 320 c 4
64 320 m 4
 64 497 207 640 384 640 c 4
 561 640 704 497 704 320 c 4
 704 143 561 0 384 0 c 4
 207 0 64 143 64 320 c 4
EndSplineSet
Validated: 1
EndChar

StartChar: exclam
Encoding: 33 33 34
Width: 768
Flags: HW
LayerCount: 2
Fore
SplineSet
352 64 m 1
 416 64 l 1
 416 0 l 1
 352 0 l 1
 352 64 l 1
352 640 m 1
 416 640 l 1
 416 128 l 1
 352 128 l 1
 352 640 l 1
EndSplineSet
Validated: 1
EndChar

StartChar: numbersign
Encoding: 35 35 36
Width: 768
Flags: HW
LayerCount: 2
Fore
SplineSet
574 352 m 1
 416 0 l 1
 352 0 l 1
 194 352 l 1
 574 352 l 1
284 288 m 1
 384 64 l 1
 484 288 l 1
 284 288 l 1
EndSplineSet
Validated: 1
EndChar

StartChar: dollar
Encoding: 36 36 37
Width: 768
Flags: HW
LayerCount: 2
Fore
SplineSet
528 224 m 4
 400 224 368 352 240 352 c 0
 112 352 64 256 64 256 c 1
 64 320 l 1
 64 320 112 416 240 416 c 0
 368 416 400 288 528 288 c 0
 656 288 704 384 704 384 c 1
 704 320 l 1
 704 320 656 224 528 224 c 4
EndSplineSet
Validated: 1
EndChar

StartChar: percent
Encoding: 37 37 38
Width: 768
Flags: HW
LayerCount: 2
Fore
SplineSet
640 320 m 1
 704 320 l 1
 704 0 l 1
 640 0 l 1
 640 320 l 1
64 640 m 1
 128 640 l 1
 128 320 l 1
 64 320 l 1
 64 640 l 1
659 640 m 1
 704 640 l 25
 704 595 l 1
 109 0 l 1
 64 0 l 25
 64 45 l 1
 659 640 l 1
EndSplineSet
Validated: 1
EndChar

StartChar: ampersand
Encoding: 38 38 39
Width: 768
Flags: HW
LayerCount: 2
Fore
SplineSet
352 352 m 1
 352 464 l 1
 416 464 l 1
 416 352 l 1
 528 352 l 1
 528 288 l 1
 416 288 l 1
 416 176 l 1
 352 176 l 1
 352 288 l 1
 240 288 l 1
 240 352 l 1
 352 352 l 1
EndSplineSet
Validated: 1
EndChar

StartChar: parenleft
Encoding: 40 40 41
Width: 768
Flags: HW
LayerCount: 2
Fore
SplineSet
528 0 m 1
 372 0 352 176 352 320 c 3
 352 464 372 640 528 640 c 1
 528 576 l 1
 419 576 416 404 416 320 c 3
 416 236 419 64 528 64 c 1
 528 0 l 1
EndSplineSet
EndChar

StartChar: parenright
Encoding: 41 41 42
Width: 768
Flags: HW
LayerCount: 2
Fore
SplineSet
240 0 m 1
 240 64 l 1
 349 64 352 236 352 320 c 3
 352 404 349 576 240 576 c 1
 240 640 l 1
 396 640 416 464 416 320 c 3
 416 176 396 0 240 0 c 1
EndSplineSet
EndChar

StartChar: asterisk
Encoding: 42 42 43
Width: 768
Flags: HW
LayerCount: 2
Fore
SplineSet
384 365 m 5
 463 444 l 5
 508 399 l 5
 429 320 l 5
 508 241 l 5
 463 196 l 5
 384 275 l 5
 305 196 l 5
 260 241 l 5
 339 320 l 5
 260 399 l 5
 305 444 l 5
 384 365 l 5
EndSplineSet
Validated: 1
EndChar

StartChar: plus
Encoding: 43 43 44
Width: 768
Flags: HW
LayerCount: 2
Fore
SplineSet
352 352 m 1
 352 464 l 1
 416 464 l 1
 416 352 l 1
 528 352 l 1
 528 288 l 1
 416 288 l 1
 416 176 l 1
 352 176 l 1
 352 288 l 1
 240 288 l 1
 240 352 l 1
 352 352 l 1
EndSplineSet
Validated: 1
EndChar

StartChar: comma
Encoding: 44 44 45
Width: 768
Flags: HW
LayerCount: 2
Fore
SplineSet
352 352 m 1
 416 352 l 1
 416 288 l 1
 352 288 l 1
 352 352 l 1
EndSplineSet
Validated: 1
EndChar

StartChar: hyphen
Encoding: 45 45 46
Width: 768
Flags: HW
LayerCount: 2
Fore
SplineSet
240 352 m 5
 528 352 l 5
 528 288 l 5
 240 288 l 5
 240 352 l 5
EndSplineSet
Validated: 1
EndChar

StartChar: period
Encoding: 46 46 47
Width: 768
Flags: HW
LayerCount: 2
Fore
SplineSet
416 464 m 5
 416 176 l 5
 352 176 l 5
 352 464 l 5
 416 464 l 5
EndSplineSet
Validated: 1
EndChar

StartChar: slash
Encoding: 47 47 48
Width: 768
Flags: HW
LayerCount: 2
Fore
SplineSet
659 640 m 1
 704 640 l 25
 704 595 l 1
 109 0 l 1
 64 0 l 25
 64 45 l 1
 659 640 l 1
EndSplineSet
Validated: 1
EndChar

StartChar: zero
Encoding: 48 48 49
Width: 768
Flags: HW
LayerCount: 2
Fore
SplineSet
128 320 m 4
 128 179 243 64 384 64 c 4
 525 64 640 179 640 320 c 4
 640 461 525 576 384 576 c 4
 243 576 128 461 128 320 c 4
64 320 m 4
 64 497 207 640 384 640 c 4
 561 640 704 497 704 320 c 4
 704 143 561 0 384 0 c 4
 207 0 64 143 64 320 c 4
EndSplineSet
Validated: 1
EndChar

StartChar: one
Encoding: 49 49 50
Width: 768
Flags: HW
LayerCount: 2
Fore
SplineSet
384 0 m 0
 207 0 64 143 64 320 c 0
 64 497 207 640 384 640 c 0
 561 640 704 497 704 320 c 0
 704 143 561 0 384 0 c 0
416 64 m 1
 542 80 640 190 640 320 c 0
 640 450 542 560 416 576 c 1
 416 64 l 1
352 576 m 1
 226 560 128 450 128 320 c 0
 128 190 226 80 352 64 c 1
 352 576 l 1
EndSplineSet
Validated: 1
EndChar

StartChar: two
Encoding: 50 50 51
Width: 768
Flags: HW
LayerCount: 2
Fore
SplineSet
64 320 m 0
 64 497 207 640 384 640 c 0
 561 640 704 497 704 320 c 0
 704 143 561 0 384 0 c 0
 207 0 64 143 64 320 c 0
128 288 m 1
 144 162 254 64 384 64 c 0
 514 64 624 162 640 288 c 1
 128 288 l 1
640 352 m 1
 624 478 514 576 384 576 c 0
 254 576 144 478 128 352 c 1
 640 352 l 1
EndSplineSet
Validated: 1
EndChar

StartChar: three
Encoding: 51 51 52
Width: 768
Flags: HW
LayerCount: 2
Fore
SplineSet
64 320 m 0
 64 497 207 640 384 640 c 0
 561 640 704 497 704 320 c 0
 704 143 561 0 384 0 c 0
 207 0 64 143 64 320 c 0
352 64 m 1
 352 288 l 1
 128 288 l 1
 143 172 236 79 352 64 c 1
352 576 m 1
 236 561 143 468 128 352 c 1
 352 352 l 1
 352 576 l 1
416 64 m 1
 532 79 625 172 640 288 c 1
 416 288 l 1
 416 64 l 1
416 576 m 1
 416 352 l 1
 640 352 l 1
 625 468 532 561 416 576 c 1
EndSplineSet
Validated: 1
EndChar

StartChar: four
Encoding: 52 52 53
Width: 768
Flags: HW
LayerCount: 2
Fore
SplineSet
158 94 m 0
 96 156 64 238 64 320 c 0
 64 402 96 484 158 546 c 0
 220 608 302 640 384 640 c 0
 466 640 548 608 610 546 c 0
 672 484 704 402 704 320 c 0
 704 238 672 156 610 94 c 0
 548 32 466 0 384 0 c 0
 302 0 220 32 158 94 c 0
542 116 m 1
 384 275 l 1
 226 116 l 1
 272 80 328 63 384 63 c 0
 440 63 496 80 542 116 c 1
180 478 m 1
 144 432 127 376 127 320 c 0
 127 264 144 208 180 162 c 1
 339 320 l 1
 180 478 l 1
588 162 m 1
 624 208 641 264 641 320 c 0
 641 376 624 432 588 478 c 1
 429 320 l 1
 588 162 l 1
226 524 m 1
 384 365 l 1
 542 524 l 1
 496 560 440 577 384 577 c 0
 328 577 272 560 226 524 c 1
EndSplineSet
Validated: 1
EndChar

StartChar: five
Encoding: 53 53 54
Width: 768
Flags: HW
LayerCount: 2
Fore
SplineSet
384 0 m 0
 207 0 64 143 64 320 c 0
 64 497 207 640 384 640 c 0
 561 640 579 640 704 640 c 1
 704 576 l 1
 416 576 l 1
 416 64 l 1
 416 64 589 64 704 64 c 1
 704 0 l 1
 579 0 561 0 384 0 c 0
352 576 m 1
 226 560 128 450 128 320 c 0
 128 190 226 80 352 64 c 1
 352 576 l 1
EndSplineSet
Validated: 1
EndChar

StartChar: six
Encoding: 54 54 55
Width: 768
Flags: HW
LayerCount: 2
Fore
SplineSet
64 320 m 4
 64 497 207 640 384 640 c 4
 561 640 704 497 704 320 c 4
 704 143 704 125 704 0 c 5
 640 0 l 5
 640 126 640 179 640 320 c 4
 640 450 542 560 416 576 c 5
 416 0 l 5
 352 0 l 5
 352 576 l 5
 226 560 127 450 127 320 c 4
 127 179 128 125 128 0 c 5
 64 0 l 5
 64 125 64 143 64 320 c 4
EndSplineSet
Validated: 1
EndChar

StartChar: seven
Encoding: 55 55 56
Width: 768
Flags: HW
LayerCount: 2
Fore
SplineSet
704 320 m 0
 704 143 561 0 384 0 c 0
 207 0 64 143 64 320 c 0
 64 497 64 515 64 640 c 1
 128 640 l 1
 128 514 128 461 128 320 c 0
 128 190 226 80 352 64 c 1
 352 640 l 1
 416 640 l 1
 416 64 l 1
 542 80 641 190 641 320 c 0
 641 461 640 515 640 640 c 1
 704 640 l 1
 704 515 704 497 704 320 c 0
EndSplineSet
Validated: 1
EndChar

StartChar: eight
Encoding: 56 56 57
Width: 768
Flags: HW
LayerCount: 2
Fore
SplineSet
384 640 m 0
 561 640 704 497 704 320 c 0
 704 143 561 0 384 0 c 0
 207 0 189 0 64 0 c 1
 64 64 l 1
 352 64 l 1
 352 576 l 1
 352 576 179 576 64 576 c 1
 64 640 l 1
 189 640 207 640 384 640 c 0
416 64 m 1
 542 80 640 190 640 320 c 0
 640 450 542 560 416 576 c 1
 416 64 l 1
EndSplineSet
Validated: 1
EndChar

StartChar: nine
Encoding: 57 57 58
Width: 768
Flags: HW
LayerCount: 2
Fore
SplineSet
384 0 m 0
 207 0 64 143 64 320 c 0
 64 497 207 640 384 640 c 0
 561 640 579 640 704 640 c 1
 704 576 l 1
 578 576 525 576 384 576 c 0
 254 576 144 478 128 352 c 1
 704 352 l 1
 704 288 l 1
 128 288 l 1
 144 162 254 63 384 63 c 0
 525 63 579 64 704 64 c 1
 704 0 l 1
 579 0 561 0 384 0 c 0
EndSplineSet
Validated: 1
EndChar

StartChar: colon
Encoding: 58 58 59
Width: 768
Flags: HW
LayerCount: 2
Fore
SplineSet
352 288 m 1
 416 288 l 1
 416 224 l 1
 352 224 l 1
 352 288 l 1
352 416 m 1
 416 416 l 1
 416 352 l 1
 352 352 l 1
 352 416 l 1
EndSplineSet
Validated: 1
EndChar

StartChar: semicolon
Encoding: 59 59 60
Width: 768
Flags: HW
LayerCount: 2
Fore
SplineSet
574 352 m 1
 416 0 l 1
 352 0 l 1
 194 352 l 1
 574 352 l 1
284 288 m 1
 384 64 l 1
 484 288 l 1
 284 288 l 1
EndSplineSet
Validated: 1
EndChar

StartChar: less
Encoding: 60 60 61
Width: 768
Flags: HW
LayerCount: 2
Fore
SplineSet
704 130 m 1
 352 288 l 1
 352 352 l 1
 704 510 l 1
 704 130 l 1
640 420 m 1
 416 320 l 1
 640 220 l 1
 640 420 l 1
EndSplineSet
Validated: 1
EndChar

StartChar: equal
Encoding: 61 61 62
Width: 768
Flags: HW
LayerCount: 2
Fore
SplineSet
240 288 m 1
 528 288 l 1
 528 224 l 1
 240 224 l 1
 240 288 l 1
240 416 m 1
 528 416 l 1
 528 352 l 1
 240 352 l 1
 240 416 l 1
EndSplineSet
Validated: 1
EndChar

StartChar: greater
Encoding: 62 62 63
Width: 768
Flags: HW
LayerCount: 2
Fore
SplineSet
64 130 m 5
 64 510 l 5
 416 352 l 5
 416 288 l 5
 64 130 l 5
128 420 m 5
 128 220 l 5
 352 320 l 5
 128 420 l 5
EndSplineSet
Validated: 1
EndChar

StartChar: question
Encoding: 63 63 64
Width: 768
Flags: HW
LayerCount: 2
Fore
SplineSet
416 576 m 1
 352 576 l 1
 352 640 l 1
 416 640 l 1
 416 576 l 1
416 0 m 1
 352 0 l 1
 352 512 l 1
 416 512 l 1
 416 0 l 1
EndSplineSet
Validated: 1
EndChar

StartChar: A
Encoding: 65 65 66
Width: 768
Flags: HW
LayerCount: 2
Fore
SplineSet
64 320 m 4
 64 497 207 640 384 640 c 4
 561 640 704 497 704 320 c 4
 704 143 704 125 704 0 c 5
 640 0 l 5
 640 288 l 5
 128 288 l 5
 128 288 128 115 128 0 c 5
 64 0 l 5
 64 125 64 143 64 320 c 4
640 352 m 5
 624 478 514 576 384 576 c 4
 254 576 144 478 128 352 c 5
 640 352 l 5
EndSplineSet
Validated: 1
EndChar

StartChar: B
Encoding: 66 66 67
Width: 768
Flags: HW
LayerCount: 2
Fore
SplineSet
64 352 m 1
 704 640 l 1
 704 576 l 1
 128 320 l 1
 704 64 l 1
 704 0 l 1
 64 288 l 1
 64 352 l 1
EndSplineSet
Validated: 1
EndChar

StartChar: C
Encoding: 67 67 68
Width: 768
Flags: HW
LayerCount: 2
Fore
SplineSet
64 352 m 1
 704 640 l 1
 704 576 l 1
 416 448 l 1
 416 192 l 1
 704 64 l 1
 704 0 l 1
 64 288 l 1
 64 352 l 1
352 420 m 1
 128 320 l 1
 352 220 l 1
 352 420 l 1
EndSplineSet
Validated: 1
EndChar

StartChar: D
Encoding: 68 68 69
Width: 768
Flags: HW
LayerCount: 2
Fore
SplineSet
64 0 m 1
 64 64 l 1
 352 64 l 1
 352 640 l 1
 416 640 l 1
 416 64 l 1
 704 64 l 1
 704 0 l 1
 64 0 l 1
EndSplineSet
Validated: 1
EndChar

StartChar: E
Encoding: 69 69 70
Width: 768
Flags: HW
LayerCount: 2
Fore
SplineSet
384 0 m 0
 207 0 64 143 64 320 c 0
 64 497 207 640 384 640 c 0
 561 640 579 640 704 640 c 1
 704 576 l 1
 578 576 525 576 384 576 c 0
 254 576 144 478 128 352 c 1
 704 352 l 1
 704 288 l 1
 128 288 l 1
 144 162 254 63 384 63 c 0
 525 63 579 64 704 64 c 1
 704 0 l 1
 579 0 561 0 384 0 c 0
EndSplineSet
Validated: 1
EndChar

StartChar: F
Encoding: 70 70 71
Width: 768
Flags: HW
LayerCount: 2
Fore
SplineSet
64 0 m 1
 64 640 l 1
 128 640 l 1
 128 352 l 1
 704 352 l 1
 704 288 l 1
 128 288 l 1
 128 0 l 1
 64 0 l 1
EndSplineSet
Validated: 1
EndChar

StartChar: G
Encoding: 71 71 72
Width: 768
Flags: HW
LayerCount: 2
Fore
SplineSet
64 640 m 1
 704 640 l 1
 704 0 l 1
 640 0 l 1
 640 576 l 1
 64 576 l 1
 64 640 l 1
EndSplineSet
Validated: 1
EndChar

StartChar: H
Encoding: 72 72 73
Width: 768
Flags: HW
LayerCount: 2
Fore
SplineSet
416 640 m 5
 704 0 l 5
 640 0 l 5
 512 288 l 5
 256 288 l 5
 128 0 l 5
 64 0 l 5
 352 640 l 5
 416 640 l 5
484 352 m 5
 384 576 l 5
 284 352 l 5
 484 352 l 5
EndSplineSet
Validated: 1
EndChar

StartChar: I
Encoding: 73 73 74
Width: 768
Flags: HW
LayerCount: 2
Fore
SplineSet
384 640 m 0
 561 640 704 497 704 320 c 0
 704 143 561 0 384 0 c 0
 207 0 189 0 64 0 c 1
 64 64 l 1
 190 64 243 64 384 64 c 0
 514 64 624 162 640 288 c 1
 64 288 l 1
 64 352 l 1
 640 352 l 1
 624 478 514 577 384 577 c 0
 243 577 189 576 64 576 c 1
 64 640 l 1
 189 640 207 640 384 640 c 0
EndSplineSet
Validated: 1
EndChar

StartChar: J
Encoding: 74 74 75
Width: 768
Flags: HW
LayerCount: 2
Fore
SplineSet
64 0 m 1
 64 64 l 1
 640 64 l 1
 640 640 l 1
 704 640 l 1
 704 0 l 1
 64 0 l 1
EndSplineSet
Validated: 1
EndChar

StartChar: K
Encoding: 75 75 76
Width: 768
Flags: HW
LayerCount: 2
Fore
SplineSet
384 0 m 0
 207 0 64 143 64 320 c 0
 64 497 207 640 384 640 c 0
 561 640 579 640 704 640 c 1
 704 576 l 25
 578 576 525 576 384 576 c 0
 243 576 128 461 128 320 c 0
 128 179 243 63 384 63 c 0
 525 63 579 64 704 64 c 1
 704 0 l 1
 579 0 561 0 384 0 c 0
EndSplineSet
Validated: 1
EndChar

StartChar: L
Encoding: 76 76 77
Width: 768
Flags: HW
LayerCount: 2
Fore
SplineSet
352 640 m 1
 416 640 l 1
 704 0 l 1
 640 0 l 1
 384 576 l 1
 128 0 l 1
 64 0 l 1
 352 640 l 1
EndSplineSet
Validated: 1
EndChar

StartChar: M
Encoding: 77 77 78
Width: 768
Flags: HW
LayerCount: 2
Fore
SplineSet
704 320 m 0
 704 143 561 0 384 0 c 0
 207 0 64 143 64 320 c 0
 64 497 64 515 64 640 c 1
 128 640 l 25
 128 514 128 461 128 320 c 0
 128 179 243 64 384 64 c 0
 525 64 641 179 641 320 c 0
 641 461 640 515 640 640 c 1
 704 640 l 1
 704 515 704 497 704 320 c 0
EndSplineSet
Validated: 1
EndChar

StartChar: N
Encoding: 78 78 79
Width: 768
Flags: HW
LayerCount: 2
Fore
SplineSet
109 640 m 1
 704 45 l 1
 704 0 l 25
 659 0 l 1
 384 275 l 1
 109 0 l 1
 64 0 l 25
 64 45 l 1
 339 320 l 1
 64 595 l 1
 64 640 l 25
 109 640 l 1
EndSplineSet
Validated: 1
EndChar

StartChar: O
Encoding: 79 79 80
Width: 768
Flags: HW
LayerCount: 2
Fore
SplineSet
384 0 m 0
 207 0 64 143 64 320 c 0
 64 497 207 640 384 640 c 0
 561 640 704 497 704 320 c 0
 704 143 561 0 384 0 c 0
416 64 m 1
 542 80 640 190 640 320 c 0
 640 450 542 560 416 576 c 1
 416 64 l 1
352 576 m 1
 226 560 128 450 128 320 c 0
 128 190 226 80 352 64 c 1
 352 576 l 1
EndSplineSet
Validated: 1
EndChar

StartChar: P
Encoding: 80 80 81
Width: 768
Flags: HW
LayerCount: 2
Fore
SplineSet
704 0 m 1
 640 0 l 1
 640 288 l 1
 64 288 l 1
 64 352 l 1
 640 352 l 1
 640 640 l 1
 704 640 l 1
 704 0 l 1
EndSplineSet
Validated: 1
EndChar

StartChar: Q
Encoding: 81 81 82
Width: 768
Flags: HW
LayerCount: 2
Fore
SplineSet
384 0 m 0
 207 0 64 143 64 320 c 0
 64 497 207 640 384 640 c 0
 561 640 579 640 704 640 c 1
 704 576 l 25
 578 576 525 576 384 576 c 0
 243 576 128 461 128 320 c 0
 128 179 243 63 384 63 c 0
 525 63 579 64 704 64 c 1
 704 0 l 1
 579 0 561 0 384 0 c 0
EndSplineSet
Validated: 1
EndChar

StartChar: R
Encoding: 82 82 83
Width: 768
Flags: HW
LayerCount: 2
Fore
SplineSet
704 640 m 1
 704 576 l 1
 128 576 l 1
 128 0 l 1
 64 0 l 1
 64 640 l 1
 704 640 l 1
EndSplineSet
Validated: 1
EndChar

StartChar: S
Encoding: 83 83 84
Width: 768
Flags: HW
LayerCount: 2
Fore
SplineSet
704 288 m 1
 64 0 l 1
 64 64 l 1
 352 192 l 1
 352 448 l 1
 64 576 l 1
 64 640 l 1
 704 352 l 1
 704 288 l 1
416 220 m 1
 640 320 l 1
 416 420 l 1
 416 220 l 1
EndSplineSet
Validated: 1
EndChar

StartChar: T
Encoding: 84 84 85
Width: 768
Flags: HW
LayerCount: 2
Fore
SplineSet
352 0 m 5
 64 640 l 5
 128 640 l 5
 256 352 l 5
 512 352 l 5
 640 640 l 5
 704 640 l 5
 416 0 l 5
 352 0 l 5
284 288 m 5
 384 64 l 5
 484 288 l 5
 284 288 l 5
EndSplineSet
Validated: 1
EndChar

StartChar: U
Encoding: 85 85 86
Width: 768
Flags: HW
LayerCount: 2
Fore
SplineSet
704 320 m 4
 704 143 561 0 384 0 c 4
 207 0 64 143 64 320 c 4
 64 497 64 515 64 640 c 5
 128 640 l 5
 128 352 l 5
 640 352 l 5
 640 352 640 525 640 640 c 5
 704 640 l 5
 704 515 704 497 704 320 c 4
128 288 m 5
 144 162 254 64 384 64 c 4
 514 64 624 162 640 288 c 5
 128 288 l 5
EndSplineSet
Validated: 1
EndChar

StartChar: V
Encoding: 86 86 87
Width: 768
Flags: HW
LayerCount: 2
Fore
SplineSet
416 0 m 1
 352 0 l 1
 64 640 l 1
 128 640 l 1
 384 64 l 1
 640 640 l 1
 704 640 l 1
 416 0 l 1
EndSplineSet
Validated: 1
EndChar

StartChar: W
Encoding: 87 87 88
Width: 768
Flags: HW
LayerCount: 2
Fore
SplineSet
158 94 m 0
 96 156 64 238 64 320 c 0
 64 402 96 484 158 546 c 0
 220 608 302 640 384 640 c 0
 466 640 548 608 610 546 c 0
 672 484 704 402 704 320 c 0
 704 238 672 156 610 94 c 0
 548 32 466 0 384 0 c 0
 302 0 220 32 158 94 c 0
542 116 m 1
 384 275 l 1
 226 116 l 1
 272 80 328 63 384 63 c 0
 440 63 496 80 542 116 c 1
180 478 m 1
 144 432 127 376 127 320 c 0
 127 264 144 208 180 162 c 1
 339 320 l 1
 180 478 l 1
588 162 m 1
 624 208 641 264 641 320 c 0
 641 376 624 432 588 478 c 1
 429 320 l 1
 588 162 l 1
226 524 m 1
 384 365 l 1
 542 524 l 1
 496 560 440 577 384 577 c 0
 328 577 272 560 226 524 c 1
EndSplineSet
Validated: 1
EndChar

StartChar: X
Encoding: 88 88 89
Width: 768
Flags: HW
LayerCount: 2
Fore
SplineSet
659 0 m 5
 64 595 l 5
 64 640 l 29
 109 640 l 5
 384 365 l 5
 659 640 l 5
 704 640 l 29
 704 595 l 5
 429 320 l 5
 704 45 l 5
 704 0 l 29
 659 0 l 5
EndSplineSet
Validated: 1
EndChar

StartChar: Y
Encoding: 89 89 90
Width: 768
Flags: HW
LayerCount: 2
Fore
SplineSet
64 320 m 0
 64 497 207 640 384 640 c 0
 561 640 704 497 704 320 c 0
 704 143 561 0 384 0 c 0
 207 0 64 143 64 320 c 0
128 288 m 1
 144 162 254 64 384 64 c 0
 514 64 624 162 640 288 c 1
 128 288 l 1
640 352 m 1
 624 478 514 576 384 576 c 0
 254 576 144 478 128 352 c 1
 640 352 l 1
EndSplineSet
Validated: 1
EndChar

StartChar: Z
Encoding: 90 90 91
Width: 768
Flags: HW
LayerCount: 2
Fore
SplineSet
109 0 m 1
 64 0 l 25
 64 45 l 1
 339 320 l 1
 64 595 l 1
 64 640 l 25
 109 640 l 1
 384 365 l 1
 659 640 l 1
 704 640 l 25
 704 595 l 1
 109 0 l 1
EndSplineSet
Validated: 1
EndChar

StartChar: bracketleft
Encoding: 91 91 92
Width: 768
Flags: HW
LayerCount: 2
Fore
SplineSet
528 640 m 5
 528 576 l 5
 416 576 l 5
 416 65 l 5
 528 65 l 5
 528 0 l 5
 352 0 l 5
 352 640 l 5
 528 640 l 5
EndSplineSet
EndChar

StartChar: backslash
Encoding: 92 92 93
Width: 768
Flags: HW
LayerCount: 2
Fore
SplineSet
109 640 m 5
 704 45 l 5
 704 0 l 29
 659 0 l 5
 64 595 l 5
 64 640 l 29
 109 640 l 5
EndSplineSet
Validated: 1
EndChar

StartChar: bracketright
Encoding: 93 93 94
Width: 768
Flags: HWO
LayerCount: 2
Fore
SplineSet
240 640 m 5
 416 640 l 5
 416 0 l 5
 240 0 l 5
 240 65 l 5
 352 65 l 5
 352 576 l 5
 240 576 l 5
 240 640 l 5
EndSplineSet
EndChar

StartChar: asciicircum
Encoding: 94 94 95
Width: 768
Flags: HW
LayerCount: 2
Fore
SplineSet
194 288 m 1
 352 640 l 1
 416 640 l 1
 574 288 l 1
 194 288 l 1
484 352 m 1
 384 576 l 1
 284 352 l 1
 484 352 l 1
EndSplineSet
Validated: 1
EndChar

StartChar: underscore
Encoding: 95 95 96
Width: 768
Flags: HW
LayerCount: 2
Fore
SplineSet
64 64 m 5
 704 64 l 1
 704 0 l 1
 64 0 l 5
 64 64 l 5
EndSplineSet
Validated: 1
EndChar

StartChar: a
Encoding: 97 97 98
Width: 768
Flags: HW
LayerCount: 2
Fore
SplineSet
64 320 m 4
 64 497 207 640 384 640 c 4
 561 640 704 497 704 320 c 4
 704 143 704 125 704 0 c 5
 640 0 l 5
 640 126 640 179 640 320 c 4
 640 450 542 560 416 576 c 5
 416 0 l 5
 352 0 l 5
 352 576 l 5
 226 560 127 450 127 320 c 4
 127 179 128 125 128 0 c 5
 64 0 l 5
 64 125 64 143 64 320 c 4
EndSplineSet
Validated: 1
EndChar

StartChar: b
Encoding: 98 98 99
Width: 768
Flags: HW
LayerCount: 2
Fore
SplineSet
64 352 m 1
 704 640 l 1
 704 576 l 1
 128 320 l 1
 704 64 l 1
 704 0 l 1
 64 288 l 1
 64 352 l 1
EndSplineSet
Validated: 1
EndChar

StartChar: c
Encoding: 99 99 100
Width: 768
Flags: HW
LayerCount: 2
Fore
SplineSet
384 0 m 0
 207 0 64 143 64 320 c 0
 64 497 207 640 384 640 c 0
 561 640 579 640 704 640 c 1
 704 576 l 25
 578 576 525 576 384 576 c 0
 243 576 128 461 128 320 c 0
 128 179 243 63 384 63 c 0
 525 63 579 64 704 64 c 1
 704 0 l 1
 579 0 561 0 384 0 c 0
EndSplineSet
Validated: 1
EndChar

StartChar: d
Encoding: 100 100 101
Width: 768
Flags: HW
LayerCount: 2
Fore
SplineSet
64 0 m 1
 64 64 l 1
 352 64 l 1
 352 640 l 1
 416 640 l 1
 416 64 l 1
 704 64 l 1
 704 0 l 1
 64 0 l 1
EndSplineSet
Validated: 1
EndChar

StartChar: e
Encoding: 101 101 102
Width: 768
Flags: HW
LayerCount: 2
Fore
SplineSet
384 0 m 0
 207 0 64 143 64 320 c 0
 64 497 207 640 384 640 c 0
 561 640 579 640 704 640 c 1
 704 576 l 1
 416 576 l 1
 416 64 l 1
 416 64 589 64 704 64 c 1
 704 0 l 1
 579 0 561 0 384 0 c 0
352 576 m 1
 226 560 128 450 128 320 c 0
 128 190 226 80 352 64 c 1
 352 576 l 1
EndSplineSet
Validated: 1
EndChar

StartChar: f
Encoding: 102 102 103
Width: 768
Flags: HW
LayerCount: 2
Fore
SplineSet
64 0 m 1
 64 640 l 1
 128 640 l 1
 128 352 l 1
 704 352 l 1
 704 288 l 1
 128 288 l 1
 128 0 l 1
 64 0 l 1
EndSplineSet
Validated: 1
EndChar

StartChar: g
Encoding: 103 103 104
Width: 768
Flags: HW
LayerCount: 2
Fore
SplineSet
64 640 m 1
 704 640 l 1
 704 0 l 1
 640 0 l 1
 640 576 l 1
 64 576 l 1
 64 640 l 1
EndSplineSet
Validated: 1
EndChar

StartChar: h
Encoding: 104 104 105
Width: 768
Flags: HW
LayerCount: 2
Fore
SplineSet
659 640 m 1
 704 640 l 25
 704 595 l 1
 429 320 l 1
 704 45 l 1
 704 0 l 25
 659 0 l 1
 384 275 l 1
 109 0 l 1
 64 0 l 25
 64 45 l 1
 659 640 l 1
EndSplineSet
Validated: 1
EndChar

StartChar: i
Encoding: 105 105 106
Width: 768
Flags: HW
LayerCount: 2
Fore
SplineSet
384 640 m 0
 561 640 704 497 704 320 c 0
 704 143 561 0 384 0 c 0
 207 0 189 0 64 0 c 1
 64 64 l 1
 352 64 l 1
 352 576 l 1
 352 576 179 576 64 576 c 1
 64 640 l 1
 189 640 207 640 384 640 c 0
416 64 m 1
 542 80 640 190 640 320 c 0
 640 450 542 560 416 576 c 1
 416 64 l 1
EndSplineSet
Validated: 1
EndChar

StartChar: j
Encoding: 106 106 107
Width: 768
Flags: HW
LayerCount: 2
Fore
SplineSet
64 0 m 1
 64 64 l 1
 640 64 l 1
 640 640 l 1
 704 640 l 1
 704 0 l 1
 64 0 l 1
EndSplineSet
Validated: 1
EndChar

StartChar: k
Encoding: 107 107 108
Width: 768
Flags: HW
LayerCount: 2
Fore
SplineSet
384 0 m 0
 207 0 64 143 64 320 c 0
 64 497 207 640 384 640 c 0
 561 640 579 640 704 640 c 1
 704 576 l 25
 578 576 525 576 384 576 c 0
 243 576 128 461 128 320 c 0
 128 179 243 63 384 63 c 0
 525 63 579 64 704 64 c 1
 704 0 l 1
 579 0 561 0 384 0 c 0
EndSplineSet
Validated: 1
EndChar

StartChar: l
Encoding: 108 108 109
Width: 768
Flags: HW
LayerCount: 2
Fore
SplineSet
704 0 m 1
 64 0 l 1
 64 640 l 1
 128 640 l 1
 128 64 l 1
 704 64 l 1
 704 0 l 1
EndSplineSet
Validated: 1
EndChar

StartChar: m
Encoding: 109 109 110
Width: 768
Flags: HW
LayerCount: 2
Fore
SplineSet
704 320 m 0
 704 143 561 0 384 0 c 0
 207 0 64 143 64 320 c 0
 64 497 64 515 64 640 c 1
 128 640 l 25
 128 514 128 461 128 320 c 0
 128 179 243 64 384 64 c 0
 525 64 641 179 641 320 c 0
 641 461 640 515 640 640 c 1
 704 640 l 1
 704 515 704 497 704 320 c 0
EndSplineSet
Validated: 1
EndChar

StartChar: n
Encoding: 110 110 111
Width: 768
Flags: HW
LayerCount: 2
Fore
SplineSet
64 320 m 0
 64 497 207 640 384 640 c 0
 561 640 704 497 704 320 c 0
 704 143 704 125 704 0 c 1
 640 0 l 25
 640 126 640 179 640 320 c 0
 640 461 525 576 384 576 c 0
 243 576 127 461 127 320 c 0
 127 179 128 125 128 0 c 1
 64 0 l 1
 64 125 64 143 64 320 c 0
EndSplineSet
Validated: 1
EndChar

StartChar: p
Encoding: 112 112 112
Width: 768
Flags: HW
LayerCount: 2
Fore
SplineSet
704 0 m 1
 640 0 l 1
 640 288 l 1
 64 288 l 1
 64 352 l 1
 640 352 l 1
 640 640 l 1
 704 640 l 1
 704 0 l 1
EndSplineSet
Validated: 1
EndChar

StartChar: q
Encoding: 113 113 113
Width: 768
Flags: HW
LayerCount: 2
Fore
SplineSet
384 0 m 0
 207 0 64 143 64 320 c 0
 64 497 207 640 384 640 c 0
 561 640 579 640 704 640 c 1
 704 576 l 25
 578 576 525 576 384 576 c 0
 243 576 128 461 128 320 c 0
 128 179 243 63 384 63 c 0
 525 63 579 64 704 64 c 1
 704 0 l 1
 579 0 561 0 384 0 c 0
EndSplineSet
Validated: 1
EndChar

StartChar: r
Encoding: 114 114 114
Width: 768
Flags: HW
LayerCount: 2
Fore
SplineSet
704 640 m 1
 704 576 l 1
 128 576 l 1
 128 0 l 1
 64 0 l 1
 64 640 l 1
 704 640 l 1
EndSplineSet
Validated: 1
EndChar

StartChar: s
Encoding: 115 115 115
Width: 768
Flags: HW
LayerCount: 2
Fore
SplineSet
384 640 m 0
 561 640 704 497 704 320 c 0
 704 143 561 0 384 0 c 0
 207 0 189 0 64 0 c 1
 64 64 l 25
 190 64 243 64 384 64 c 0
 525 64 640 179 640 320 c 0
 640 461 525 577 384 577 c 0
 243 577 189 576 64 576 c 1
 64 640 l 1
 189 640 207 640 384 640 c 0
EndSplineSet
Validated: 1
EndChar

StartChar: t
Encoding: 116 116 116
Width: 768
Flags: HW
LayerCount: 2
Fore
SplineSet
64 640 m 5
 704 640 l 5
 704 576 l 5
 416 576 l 5
 416 0 l 5
 352 0 l 5
 352 576 l 5
 64 576 l 5
 64 640 l 5
EndSplineSet
Validated: 1
EndChar

StartChar: u
Encoding: 117 117 117
Width: 768
Flags: HW
LayerCount: 2
Fore
SplineSet
704 320 m 0
 704 143 561 0 384 0 c 0
 207 0 64 143 64 320 c 0
 64 497 64 515 64 640 c 1
 128 640 l 1
 128 514 128 461 128 320 c 0
 128 190 226 80 352 64 c 1
 352 640 l 1
 416 640 l 1
 416 64 l 1
 542 80 641 190 641 320 c 0
 641 461 640 515 640 640 c 1
 704 640 l 1
 704 515 704 497 704 320 c 0
EndSplineSet
Validated: 1
EndChar

StartChar: v
Encoding: 118 118 118
Width: 768
Flags: HW
LayerCount: 2
Fore
SplineSet
416 0 m 1
 352 0 l 1
 64 640 l 1
 128 640 l 1
 384 64 l 1
 640 640 l 1
 704 640 l 1
 416 0 l 1
EndSplineSet
Validated: 1
EndChar

StartChar: w
Encoding: 119 119 119
Width: 768
Flags: HW
LayerCount: 2
Fore
SplineSet
64 320 m 0
 64 497 207 640 384 640 c 0
 561 640 704 497 704 320 c 0
 704 143 561 0 384 0 c 0
 207 0 64 143 64 320 c 0
352 64 m 1
 352 288 l 1
 128 288 l 1
 143 172 236 79 352 64 c 1
352 576 m 1
 236 561 143 468 128 352 c 1
 352 352 l 1
 352 576 l 1
416 64 m 1
 532 79 625 172 640 288 c 1
 416 288 l 1
 416 64 l 1
416 576 m 1
 416 352 l 1
 640 352 l 1
 625 468 532 561 416 576 c 1
EndSplineSet
Validated: 1
EndChar

StartChar: x
Encoding: 120 120 120
Width: 768
Flags: HW
LayerCount: 2
Fore
SplineSet
659 0 m 5
 64 595 l 5
 64 640 l 29
 109 640 l 5
 384 365 l 5
 659 640 l 5
 704 640 l 29
 704 595 l 5
 429 320 l 5
 704 45 l 5
 704 0 l 29
 659 0 l 5
EndSplineSet
Validated: 1
EndChar

StartChar: y
Encoding: 121 121 121
Width: 768
Flags: HW
LayerCount: 2
Fore
SplineSet
64 320 m 0
 64 497 207 640 384 640 c 0
 561 640 704 497 704 320 c 0
 704 143 561 0 384 0 c 0
 207 0 64 143 64 320 c 0
128 288 m 1
 144 162 254 64 384 64 c 0
 514 64 624 162 640 288 c 1
 128 288 l 1
640 352 m 1
 624 478 514 576 384 576 c 0
 254 576 144 478 128 352 c 1
 640 352 l 1
EndSplineSet
Validated: 1
EndChar

StartChar: z
Encoding: 122 122 122
Width: 768
Flags: HW
LayerCount: 2
Fore
SplineSet
704 352 m 1
 704 288 l 1
 64 0 l 1
 64 64 l 1
 640 320 l 1
 64 576 l 1
 64 640 l 1
 704 352 l 1
EndSplineSet
Validated: 1
EndChar

StartChar: braceleft
Encoding: 123 123 123
Width: 768
Flags: HW
LayerCount: 2
Fore
SplineSet
352 288 m 1
 288 288 l 1
 288 352 l 1
 352 352 l 1
 355 489 383 640 528 640 c 1
 528 576 l 1
 432 576 418 441 416 352 c 1
 480 352 l 1
 480 288 l 1
 416 288 l 1
 418 199 432 64 528 64 c 1
 528 0 l 1
 383 0 355 151 352 288 c 1
EndSplineSet
EndChar

StartChar: bar
Encoding: 124 124 124
Width: 768
Flags: HW
LayerCount: 2
Fore
SplineSet
352 0 m 5
 352 640 l 5
 416 640 l 5
 416 0 l 5
 352 0 l 5
EndSplineSet
Validated: 1
EndChar

StartChar: braceright
Encoding: 125 125 125
Width: 768
Flags: HW
LayerCount: 2
Fore
SplineSet
416 288 m 5
 413 151 385 0 240 0 c 5
 240 64 l 5
 336 64 350 199 352 288 c 5
 288 288 l 5
 288 352 l 5
 352 352 l 5
 350 441 336 576 240 576 c 5
 240 640 l 5
 385 640 413 489 416 352 c 5
 480 352 l 5
 480 288 l 5
 416 288 l 5
EndSplineSet
EndChar

StartChar: asciitilde
Encoding: 126 126 126
Width: 768
Flags: HW
LayerCount: 2
Fore
SplineSet
528 224 m 4
 400 224 368 352 240 352 c 0
 112 352 64 256 64 256 c 1
 64 320 l 1
 64 320 112 416 240 416 c 0
 368 416 400 288 528 288 c 0
 656 288 704 384 704 384 c 1
 704 320 l 1
 704 320 656 224 528 224 c 4
EndSplineSet
Validated: 1
EndChar

